<mxfile host="app.diagrams.net" modified="2024-05-06T09:48:27.349Z" agent="Mozilla/5.0 (X11; Linux x86_64; rv:125.0) Gecko/20100101 Firefox/125.0" version="24.2.2" etag="nr4XvTrJJQ7h2DNo-n4X" type="github">
  <diagram name="Page-1" id="jSVp6zSiohkGSGdewAzT">
    <mxGraphModel>
      <root>
        <mxCell id="0" />
        <mxCell id="1" parent="0" />
      </root>
    </mxGraphModel>
  </diagram>
</mxfile>
